<svg xmlns="http://www.w3.org/2000/svg" viewBox="0 0 512 512"><path d="M44.8 0A12.8 12.8 0 0 0 32 12.8V64a12.8 12.8 0 0 0 12.8 12.8h32v332.8l-46.08 34.56a12.82 12.82 0 0 0-5.12 10.24v44.8A12.8 12.8 0 0 0 38.4 512H192a12.8 12.8 0 0 0 12.8-12.8v-44.8a12.82 12.82 0 0 0-5.12-10.24L153.6 409.6V227.1L303.91 76.8H409.6v102.4h-6.4a12.8 12.8 0 1 0 0 25.6 12.78 12.78 0 0 0-2.2 25.38c-15.1 12.82-36.2 36.76-36.2 70.62a57.6 57.6 0 0 0 115.2 0c0-33.86-21.1-57.78-36.24-70.62a12.78 12.78 0 0 0-2.16-25.38 12.8 12.8 0 0 0 0-25.6h-6.4V76.8h38.4A12.8 12.8 0 0 0 486.4 64V12.8A12.8 12.8 0 0 0 473.6 0zm409.6 300.8a32 32 0 1 1-64 0c0-27.32 21.14-46.76 32-55 10.94 8.2 32 27.48 32 55zm-300.8-224h41.69l-41.69 41.7z" fill="#2b374f"/></svg>